<svg width="135" height="28" viewBox="0 0 135 28" fill="none" xmlns="http://www.w3.org/2000/svg">
<path d="M0.00012207 5.34797e-10H5.54921L5.56998 19.9487L5.58756 20.8354L5.5936 20.9013L5.59648 20.9225C5.78762 22.1693 6.27059 22.7045 7.44001 22.9579C7.72954 23.02 8.02379 23.0588 8.41088 23.0825L8.60572 23.0927L10.4636 23.1079L12.6842 23.1119L17.5106 23.112V28L9.44177 27.9826L7.80108 27.9666L7.68664 27.9615L7.26464 27.9245L6.92184 27.891L6.60266 27.8546L6.3713 27.8236C4.61614 27.5763 3.25353 27.0634 2.27114 26.2808C2.02451 26.0841 1.64224 25.701 1.45522 25.4638C0.635453 24.4185 0.169202 23.0283 0.0366788 21.222L0.0194091 20.9347L0.0124956 20.2037L0.00401665 17.085L0.000642359 13.1019L0.00012207 5.34797e-10ZM38.4102 5.34793e-10V4.88596H25.3211V11.4344H34.4773L34.477 11.4834L34.0881 16.3041L33.1085 16.314L30.3802 16.3201L25.319 16.3203L25.3329 20.0739L25.3423 20.7249L25.3513 20.903L25.3641 21.0162L25.3784 21.0948C25.4727 21.5793 25.6447 22.003 25.8475 22.2504C26.2562 22.7477 26.9634 23.0031 28.1582 23.0817L28.381 23.0935L30.2197 23.1074L32.7915 23.1118L38.4102 23.112V28L28.4545 27.9816L27.3575 27.9675L26.9547 27.9532L26.5143 27.9217L26.2326 27.8946C24.0163 27.6797 22.4267 27.0998 21.4722 26.1551C20.4787 25.1698 19.9346 23.6661 19.8034 21.5367L19.7888 21.2325L19.7731 16.6085L19.7703 12.3886L19.77 5.34793e-10H38.4102ZM73.7134 0.0123351C73.9388 -0.0140301 74.5205 0.00422276 74.7479 0.0447846C75.237 0.129964 75.6214 0.298296 75.9394 0.566004C76.2069 0.792526 76.5208 1.27826 76.7733 1.85891L76.8374 2.01207L85.8579 27.9838L85.8229 27.9866L84.5309 27.9978L83.022 28H80.1861L78.6807 23.3293L78.6283 23.1731H69.3217L67.8021 28L62.674 27.9961L62.2653 27.9883L62.1936 27.9838L62.1535 27.9782L62.1366 27.9715L62.134 27.9663L70.4403 4.03962L71.0781 2.26138L71.1603 2.06237L71.1955 1.9877C71.4733 1.42794 71.8114 0.943229 72.1133 0.679577C72.542 0.302352 73.0512 0.0894026 73.7134 0.0123351ZM93.9776 0.00867523L94.2406 0.0049903L99.5034 0.00945563L99.8992 0.0156271C102.597 0.159605 104.672 1.08836 106.247 2.85462C107.753 4.54382 108.487 6.67307 108.429 9.19166C108.404 10.2867 108.238 11.1932 107.899 12.1016C107.841 12.2557 107.737 12.4879 107.627 12.7146L107.496 12.9785C107.431 13.1037 107.37 13.2149 107.322 13.294C106.41 14.7943 105.112 15.9519 103.655 16.5669L103.281 16.717L109.582 27.9736L109.581 27.9755L109.56 27.9804L109.42 27.9883L108.603 27.9973L107.618 27.9995L103.162 28L100.396 22.8128L97.6291 17.6275L95.6466 17.6214L93.6641 17.6174V28H88.1173L88.1331 5.55558L88.1399 5.22315C88.2405 3.76513 88.598 2.65589 89.2308 1.83664C90.0827 0.729093 91.5183 0.148334 93.7211 0.0210918L93.9776 0.00867523ZM122.869 0.0202848C123.673 -0.058794 124.408 0.0953083 124.925 0.448122C125.276 0.688467 125.638 1.20613 125.925 1.8791L125.998 2.05892L135 27.9838L133.674 27.9973L132.165 28H129.33L127.855 23.4215L127.772 23.1742H118.468L117.057 27.6594L116.949 28L111.276 27.9892L119.739 3.61507L120.167 2.42133L120.313 2.05498L120.331 2.0155C120.971 0.711718 121.708 0.131806 122.869 0.0202848ZM40.67 13.218L40.6696 5.34797e-10L52.7652 0.0206626L53.567 0.0318065L53.8952 0.0425523L54.1657 0.0592369L54.3309 0.0749846L54.5766 0.103405C56.3756 0.316298 57.8131 0.892121 58.8912 1.83493C60.0989 2.89128 60.8406 4.37951 61.0809 6.23674C61.2042 7.18766 61.1916 8.26023 61.0516 9.00232C60.8197 10.227 60.2556 11.2346 59.2339 12.2444C58.8141 12.6607 58.4538 12.9472 58.0253 13.2009L57.8611 13.2946L57.6376 13.4163L57.7984 13.4933C58.4691 13.8137 59.1398 14.278 59.6413 14.7626C60.6985 15.7905 61.3128 17.1105 61.5113 18.7913C61.5844 19.4057 61.5886 20.4559 61.5217 21.1291C61.2815 23.5175 60.3768 25.2612 58.7533 26.4676C57.737 27.2221 56.4636 27.7053 54.9752 27.9001L54.663 27.9364L54.3896 27.9608L54.098 27.9782L53.7394 27.99L52.9876 27.9989L51.2034 27.9973L48.8828 27.9849L48.3339 27.9737L47.9767 27.9583L47.7127 27.9403L47.3839 27.911L47.2616 27.8991C44.8212 27.6639 43.1392 27.0069 42.1593 25.904C41.3324 24.9752 40.8623 23.6963 40.7087 21.9478L40.6893 21.6869L40.6807 20.6141L40.6733 17.504L40.67 13.218ZM49.8381 15.8575H46.3109L46.3151 19.7011L46.3264 20.5913L46.3318 20.7134C46.4825 22.3018 47.2798 22.9566 49.2553 23.0866L49.4627 23.098L49.8474 23.1069L50.7955 23.1147L52.0877 23.1135L52.9613 23.1019L53.1015 23.0958C54.0919 23.0228 54.7939 22.6984 55.2577 22.0962C55.7467 21.4575 55.9472 20.6364 55.9159 19.4077C55.8825 18.0979 55.59 17.1571 55.0384 16.5955C54.6658 16.2133 54.1186 15.9797 53.3966 15.8947L53.2102 15.8766L53.0774 15.8725L51.3225 15.8596L49.8381 15.8575ZM126.513 18.5511L123.263 7.53479L119.852 18.5146V18.5184L119.862 18.5234L119.891 18.5299L120 18.5383L120.336 18.5457L121.218 18.5501L126.513 18.5511ZM75.7381 13.0165L74.1119 7.51627L70.7064 18.5126C70.706 18.5143 70.7061 18.516 70.7069 18.5176L70.7124 18.5221L70.747 18.5298L70.8576 18.5372L71.7343 18.5472L72.909 18.5489L77.0769 18.54L77.3494 18.5346L77.3644 18.5329L75.7381 13.0165ZM99.1363 4.90473L98.553 4.89653L96.5816 4.8916L96.0832 4.89748L95.8708 4.90444L95.7063 4.91442L95.6165 4.92292L95.5376 4.93302L95.4309 4.95142C94.5578 5.12784 94.0237 5.5902 93.7977 6.37295L93.752 6.53132L93.7233 6.66038L93.7017 6.84072L93.686 7.16516L93.6737 8.36935L93.6621 13.0547L98.1091 13.0503L98.9308 13.0382L99.2209 13.0269L99.4271 13.0116L99.55 12.9962L99.5767 12.9919C100.67 12.8134 101.561 12.2294 102.196 11.2804C102.523 10.7916 102.732 10.236 102.829 9.59926C102.893 9.19369 102.893 8.54072 102.829 8.13515C102.687 7.21248 102.323 6.5007 101.693 5.90654C101.164 5.40877 100.522 5.10001 99.7151 4.95884L99.4933 4.92519L99.3498 4.91321L99.1363 4.90473ZM46.3109 4.88639V10.9305L51.8222 10.925L52.7598 10.9134L52.8716 10.9082C54.3342 10.7784 55.1846 10.081 55.4395 8.79956C55.6338 7.81417 55.4813 6.70713 55.0613 6.04818C54.9318 5.84745 54.6142 5.52101 54.4282 5.40139C54.1032 5.19052 53.7287 5.05015 53.2606 4.96602L53.0209 4.9294L52.8487 4.91728L52.3208 4.90554L49.5767 4.8945L46.3109 4.88639Z" fill="#0094F6"/>
</svg>
