<svg width="24" height="24" viewBox="0 0 24 24" fill="none" xmlns="http://www.w3.org/2000/svg">
<path d="M11.9997 0.333252C5.5597 0.333252 0.333038 5.55992 0.333038 11.9999C0.333038 18.4399 5.5597 23.6666 11.9997 23.6666C18.4397 23.6666 23.6664 18.4399 23.6664 11.9999C23.6664 5.55992 18.4397 0.333252 11.9997 0.333252ZM6.24804 19.3266C6.7497 18.2766 9.80637 17.2499 11.9997 17.2499C14.193 17.2499 17.2614 18.2766 17.7514 19.3266C16.1647 20.5866 14.1697 21.3333 11.9997 21.3333C9.8297 21.3333 7.8347 20.5866 6.24804 19.3266ZM19.4197 17.6349C17.7514 15.6049 13.703 14.9166 11.9997 14.9166C10.2964 14.9166 6.24804 15.6049 4.5797 17.6349C3.3897 16.0716 2.66637 14.1233 2.66637 11.9999C2.66637 6.85492 6.8547 2.66659 11.9997 2.66659C17.1447 2.66659 21.333 6.85492 21.333 11.9999C21.333 14.1233 20.6097 16.0716 19.4197 17.6349ZM11.9997 4.99992C9.73637 4.99992 7.91637 6.81992 7.91637 9.08325C7.91637 11.3466 9.73637 13.1666 11.9997 13.1666C14.263 13.1666 16.083 11.3466 16.083 9.08325C16.083 6.81992 14.263 4.99992 11.9997 4.99992ZM11.9997 10.8333C11.0314 10.8333 10.2497 10.0516 10.2497 9.08325C10.2497 8.11492 11.0314 7.33325 11.9997 7.33325C12.968 7.33325 13.7497 8.11492 13.7497 9.08325C13.7497 10.0516 12.968 10.8333 11.9997 10.8333Z" fill="#0094F6"/>
</svg>
