<svg width="24" height="24" viewBox="0 0 24 24" fill="none" xmlns="http://www.w3.org/2000/svg">
<path d="M11.9996 6.16659C11.358 6.16659 10.833 6.69159 10.833 7.33325V10.8333H7.33298C6.69131 10.8333 6.16631 11.3583 6.16631 11.9999C6.16631 12.6416 6.69131 13.1666 7.33298 13.1666H10.833V16.6666C10.833 17.3083 11.358 17.8333 11.9996 17.8333C12.6413 17.8333 13.1663 17.3083 13.1663 16.6666V13.1666H16.6663C17.308 13.1666 17.833 12.6416 17.833 11.9999C17.833 11.3583 17.308 10.8333 16.6663 10.8333H13.1663V7.33325C13.1663 6.69159 12.6413 6.16659 11.9996 6.16659ZM11.9996 0.333252C5.55964 0.333252 0.332977 5.55992 0.332977 11.9999C0.332977 18.4399 5.55964 23.6666 11.9996 23.6666C18.4396 23.6666 23.6663 18.4399 23.6663 11.9999C23.6663 5.55992 18.4396 0.333252 11.9996 0.333252ZM11.9996 21.3333C6.85464 21.3333 2.66631 17.1449 2.66631 11.9999C2.66631 6.85492 6.85464 2.66659 11.9996 2.66659C17.1446 2.66659 21.333 6.85492 21.333 11.9999C21.333 17.1449 17.1446 21.3333 11.9996 21.3333Z" fill="#0094F6"/>
</svg>
