<?xml version="1.0" encoding="UTF-8"?>
<svg width="168px" height="32px" viewBox="0 0 168 32" version="1.1" xmlns="http://www.w3.org/2000/svg" xmlns:xlink="http://www.w3.org/1999/xlink">
    <title>Logo-Trustpilot-On_Color-Stars-4,5</title>
    <g id="Logo-Trustpilot-On_Color-Stars-4,5" stroke="none" stroke-width="1" fill="none" fill-rule="evenodd">
        <g id="Star" fill-rule="nonzero">
            <rect id="Box" fill="#00B67A" x="0" y="0" width="32" height="32"></rect>
            <path d="M16.03125,21.5666667 L20.9074219,20.3333333 L22.9447266,26.6 L16.03125,21.5666667 Z M27.253125,13.4666667 L18.6697266,13.4666667 L16.03125,5.4 L13.3927734,13.4666667 L4.809375,13.4666667 L11.75625,18.4666667 L9.11777344,26.5333333 L16.0646484,21.5333333 L20.3396484,18.4666667 L27.253125,13.4666667 L27.253125,13.4666667 L27.253125,13.4666667 L27.253125,13.4666667 Z" fill="#FFFFFF"></path>
        </g>
        <g id="Star" transform="translate(34.000000, 0.000000)" fill-rule="nonzero">
            <rect id="Box" fill="#00B67A" x="0" y="0" width="32" height="32"></rect>
            <path d="M16.03125,21.5666667 L20.9074219,20.3333333 L22.9447266,26.6 L16.03125,21.5666667 Z M27.253125,13.4666667 L18.6697266,13.4666667 L16.03125,5.4 L13.3927734,13.4666667 L4.809375,13.4666667 L11.75625,18.4666667 L9.11777344,26.5333333 L16.0646484,21.5333333 L20.3396484,18.4666667 L27.253125,13.4666667 L27.253125,13.4666667 L27.253125,13.4666667 L27.253125,13.4666667 Z" fill="#FFFFFF"></path>
        </g>
        <g id="Star" transform="translate(68.000000, 0.000000)" fill-rule="nonzero">
            <rect id="Box" fill="#00B67A" x="0" y="0" width="32" height="32"></rect>
            <path d="M16.03125,21.5666667 L20.9074219,20.3333333 L22.9447266,26.6 L16.03125,21.5666667 Z M27.253125,13.4666667 L18.6697266,13.4666667 L16.03125,5.4 L13.3927734,13.4666667 L4.809375,13.4666667 L11.75625,18.4666667 L9.11777344,26.5333333 L16.0646484,21.5333333 L20.3396484,18.4666667 L27.253125,13.4666667 L27.253125,13.4666667 L27.253125,13.4666667 L27.253125,13.4666667 Z" fill="#FFFFFF"></path>
        </g>
        <g id="Star" transform="translate(102.000000, 0.000000)" fill-rule="nonzero">
            <rect id="Box" fill="#00B67A" x="0" y="0" width="32" height="32"></rect>
            <path d="M16.03125,21.5666667 L20.9074219,20.3333333 L22.9447266,26.6 L16.03125,21.5666667 Z M27.253125,13.4666667 L18.6697266,13.4666667 L16.03125,5.4 L13.3927734,13.4666667 L4.809375,13.4666667 L11.75625,18.4666667 L9.11777344,26.5333333 L16.0646484,21.5333333 L20.3396484,18.4666667 L27.253125,13.4666667 L27.253125,13.4666667 L27.253125,13.4666667 L27.253125,13.4666667 Z" fill="#FFFFFF"></path>
        </g>
        <g id="Star" transform="translate(136.000000, 0.000000)" fill-rule="nonzero">
            <rect id="Box" fill="#00B67A" x="0" y="0" width="16" height="32"></rect>
            <rect id="Box" fill-opacity="0.25" fill="#FFFFFF" x="16" y="0" width="16" height="32"></rect>
            <path d="M16.03125,21.5666667 L20.9074219,20.3333333 L22.9447266,26.6 L16.03125,21.5666667 Z M27.253125,13.4666667 L18.6697266,13.4666667 L16.03125,5.4 L13.3927734,13.4666667 L4.809375,13.4666667 L11.75625,18.4666667 L9.11777344,26.5333333 L16.0646484,21.5333333 L20.3396484,18.4666667 L27.253125,13.4666667 L27.253125,13.4666667 L27.253125,13.4666667 L27.253125,13.4666667 Z" fill="#FFFFFF"></path>
        </g>
    </g>
</svg>